# xmcd
#
# Track frame offsets:
#	150
#	17075
#	36187
#	57515
#	68205
#	87782
#	99520
#	116447
#	135757
#	159302
#	179535
#	197192
#	217412
#	234817
#	251412
#	272300
#
# Disc length: 3924 seconds
#
# Revision: 4
# Processed by: cddbd v1.5PL3 Copyright (c) Steve Scherf et al.
# Submitted via: CDex 1.50Beta5
#
DISCID=d40f5210
DTITLE=世良公則 - ベスト16
DYEAR=1987
DGENRE=Pop
TTITLE0=宿無し
TTITLE1=知らんぷり
TTITLE2=とびきりとばしてRock’n Roll
TTITLE3=Chalie’s Man
TTITLE4=Soppo
TTITLE5=Rock’n’Roll Queen
TTITLE6=恋のコレクトコール
TTITLE7=Sweet Little Dancing
TTITLE8=Mr.MOON LIGHT
TTITLE9=ストーンズが聞こえた街
TTITLE10=Darlin!
TTITLE11=Boy
TTITLE12=Chicken Step
TTITLE13=Say Yeah
TTITLE14=Knockin’ My Heart
TTITLE15=We are Rock’n’Roll Band
EXTD=
EXTT0=
EXTT1=
EXTT2=
EXTT3=
EXTT4=
EXTT5=
EXTT6=
EXTT7=
EXTT8=
EXTT9=
EXTT10=
EXTT11=
EXTT12=
EXTT13=
EXTT14=
EXTT15=
PLAYORDER=
